<?xml version="1.0" standalone="no"?>
<!DOCTYPE svg PUBLIC "-//W3C//DTD SVG 20010904//EN"
 "http://www.w3.org/TR/2001/REC-SVG-20010904/DTD/svg10.dtd">
<svg version="1.0" xmlns="http://www.w3.org/2000/svg"
 width="1611.000000pt" height="1611.000000pt" viewBox="0 0 1611.000000 1611.000000"
 preserveAspectRatio="xMidYMid meet">
<metadata>
Created by potrace 1.14, written by Peter Selinger 2001-2017
</metadata>
<g transform="translate(0.000000,1611.000000) scale(0.100000,-0.100000)"
fill="#000000" stroke="none">
<path d="M7908 15805 c-2 -1 -28 -5 -58 -8 -138 -13 -334 -83 -425 -153 -18
-13 -35 -24 -39 -24 -3 0 -23 -15 -44 -32 -48 -42 -6259 -6254 -6292 -6293
-67 -80 -166 -254 -174 -307 -1 -7 -4 -17 -7 -23 -9 -15 -21 -66 -36 -150 -9
-51 -9 -246 -1 -305 7 -48 33 -152 46 -185 21 -52 106 -216 121 -232 9 -10 24
-29 34 -43 38 -55 157 -165 232 -215 75 -50 183 -101 250 -120 17 -5 32 -9 35
-10 3 -1 19 -4 35 -8 17 -4 41 -10 55 -13 47 -11 275 -13 325 -3 28 6 59 12
70 14 104 19 271 95 370 170 33 25 97 82 142 127 l83 83 1 -2560 c0 -1408 2
-2572 4 -2586 8 -58 22 -134 25 -134 1 0 3 -9 5 -20 4 -20 7 -27 50 -120 112
-243 352 -434 605 -480 19 -4 42 -8 50 -10 8 -2 688 -4 1510 -5 l1495 -1 40
-51 c140 -181 190 -250 287 -393 59 -88 112 -165 118 -172 5 -7 10 -14 10 -17
0 -9 95 -161 103 -164 4 -2 7 -8 7 -13 0 -5 25 -53 56 -107 31 -53 91 -162
132 -242 114 -219 139 -257 242 -360 78 -79 214 -172 270 -185 3 -1 19 -7 35
-14 108 -45 325 -64 450 -40 28 6 61 12 75 15 45 9 169 65 227 103 77 50 165
132 218 204 34 44 294 468 350 570 6 10 96 160 200 334 181 300 219 353 365
515 15 17 109 18 1531 21 833 1 1526 6 1541 10 15 4 38 11 50 16 13 5 28 9 33
10 49 6 162 63 251 126 65 47 194 180 194 201 0 7 4 14 9 16 16 6 89 153 111
224 12 38 24 89 27 114 3 25 7 52 9 60 1 8 3 1167 3 2575 l1 2560 73 -72 c99
-100 119 -117 185 -162 97 -65 239 -128 328 -146 16 -3 45 -8 64 -12 46 -10
284 -9 335 0 89 17 145 34 225 69 84 37 130 62 130 70 0 4 5 8 10 8 32 0 184
138 256 232 91 117 169 300 191 446 9 60 9 245 0 297 -13 78 -18 100 -29 135
-7 19 -13 40 -14 45 -10 55 -101 219 -167 301 -23 29 -1446 1456 -3162 3171
-2212 2212 -3140 3134 -3190 3168 -130 89 -302 156 -444 171 -58 6 -199 13
-203 9z"/>
</g>
</svg>
